<svg width="24.000000" height="24.000000" viewBox="0 0 24 24" fill="none" xmlns="http://www.w3.org/2000/svg" xmlns:xlink="http://www.w3.org/1999/xlink">
	<desc>
			Created with Pixso.
	</desc>
	<defs/>
	<g opacity="0.900000">
		<rect id="check" width="24.000000" height="24.000000" fill="#FFFFFF" fill-opacity="0"/>
		<path id="Vector" d="M19.3904 12.016C19.3904 16.1085 16.0728 19.4261 11.98 19.4261C7.88745 19.4261 4.56982 16.1085 4.56982 12.016C4.56982 7.92334 7.88745 4.60571 11.98 4.60571C16.0728 4.60571 19.3904 7.92334 19.3904 12.016Z" fill="#5E60CE" fill-opacity="1.000000" fill-rule="evenodd"/>
		<path id="Vector" d="M11.9644 4.8595C13.3765 4.8595 14.7571 5.27832 15.9314 6.06299C17.1055 6.84753 18.0208 7.96277 18.5613 9.26746C19.1016 10.5723 19.2432 12.0079 18.9675 13.3931C18.6921 14.7782 18.012 16.0505 17.0134 17.0492C16.0146 18.0477 14.7424 18.7278 13.3574 19.0033C11.9722 19.2788 10.5364 19.1375 9.23169 18.597C7.927 18.0565 6.81177 17.1414 6.0271 15.967C5.24268 14.7928 4.82373 13.4124 4.82373 12C4.83105 10.1085 5.58569 8.29651 6.92334 6.95898C8.26074 5.62146 10.0728 4.86682 11.9644 4.8595ZM11.9644 3.27283C10.2397 3.27979 8.55591 3.79773 7.12549 4.76086C5.69482 5.72412 4.58179 7.0896 3.92676 8.68494C3.27173 10.2803 3.104 12.0338 3.44482 13.7245C3.78564 15.415 4.61963 16.9667 5.84155 18.1837C7.06348 19.4006 8.61841 20.2283 10.3105 20.5621C12.0024 20.896 13.7554 20.7211 15.3479 20.0596C16.9407 19.3979 18.3015 18.2793 19.2588 16.845C20.2163 15.4105 20.7273 13.7246 20.7273 12C20.7273 10.851 20.5002 9.71313 20.0596 8.65198C19.6187 7.59082 18.9727 6.6272 18.1584 5.81628C17.3442 5.00537 16.3779 4.36328 15.3149 3.92688C14.252 3.49036 13.1133 3.26807 11.9644 3.27283Z" fill="#5E60CE" fill-opacity="1.000000" fill-rule="nonzero"/>
		<path id="Vector" d="M15.4307 9.34216L11.0986 13.6742L8.61621 11.1917L7.78027 12.0276L11.0986 15.3459L16.2666 10.1781L15.4307 9.34216Z" fill="#F2F2F2" fill-opacity="1.000000" fill-rule="nonzero"/>
	</g>
</svg>
