<svg width="24.000000" height="24.000000" viewBox="0 0 24 24" fill="none" xmlns="http://www.w3.org/2000/svg" xmlns:xlink="http://www.w3.org/1999/xlink">
	<desc>
			Created with Pixso.
	</desc>
	<defs>
		<clipPath id="clip3_73">
			<rect id="trash" rx="4.000000" width="24.000000" height="24.000000" fill="white" fill-opacity="0"/>
		</clipPath>
	</defs>
	<rect id="trash" rx="4.000000" width="24.000000" height="24.000000" fill="#FFFFFF" fill-opacity="0"/>
	<g clip-path="url(#clip3_73)">
		<path id="Vector" d="M12.8716 9.98547L14.2021 9.98547L14.2021 15.5073L12.8716 15.5073L12.8716 9.98547Z" fill="#808080" fill-opacity="1.000000" fill-rule="evenodd"/>
		<path id="Vector" d="M10.1318 9.98547L11.4624 9.98547L11.4624 15.5073L10.1318 15.5073L10.1318 9.98547Z" fill="#808080" fill-opacity="1.000000" fill-rule="evenodd"/>
		<path id="Vector" d="M18.478 7.16711C18.4753 7.03058 18.4294 6.89844 18.3469 6.78973C18.2642 6.68103 18.1492 6.60138 18.0183 6.56232C17.9595 6.53784 17.8975 6.52252 17.834 6.51697L14.2869 6.51697C14.1526 6.07788 13.8809 5.69354 13.5117 5.42047C13.1426 5.1474 12.6956 5 12.2366 5C11.7773 5 11.3303 5.1474 10.9612 5.42047C10.5923 5.69354 10.3206 6.07788 10.1863 6.51697L6.63916 6.51697C6.58057 6.51813 6.52271 6.52728 6.4668 6.54419L6.45166 6.54419C6.31323 6.58704 6.19336 6.67548 6.11157 6.79517C6.03003 6.91486 5.99121 7.05865 6.00171 7.20319C6.01221 7.34772 6.07129 7.48444 6.16968 7.591C6.26782 7.69757 6.39917 7.76776 6.54224 7.79004L7.25293 17.5334C7.26392 17.9127 7.41699 18.2742 7.68188 18.5458C7.94678 18.8176 8.30444 18.9797 8.68335 19L15.7866 19C16.1663 18.9804 16.5244 18.8186 16.79 18.5468C17.0557 18.275 17.2092 17.9132 17.22 17.5334L17.9277 7.79913C18.0803 7.77795 18.22 7.70233 18.321 7.58618C18.4224 7.46997 18.478 7.32117 18.478 7.16711ZM12.2366 6.21454C12.3662 6.2146 12.4944 6.24146 12.613 6.29352C12.7317 6.34558 12.8381 6.42163 12.926 6.51697L11.5471 6.51697C11.6345 6.42133 11.7412 6.34509 11.8599 6.29297C11.9785 6.24091 12.1069 6.21423 12.2366 6.21454ZM15.7866 17.7904L8.68335 17.7904C8.60156 17.7904 8.47461 17.6573 8.45947 17.4457L7.75806 7.81122L16.7151 7.81122L16.0134 17.4457C15.9983 17.6573 15.8713 17.7904 15.7866 17.7904Z" fill="#808080" fill-opacity="1.000000" fill-rule="nonzero"/>
	</g>
</svg>
