<svg width="17.454590" height="17.454529" viewBox="0 0 17.4546 17.4545" fill="none" xmlns="http://www.w3.org/2000/svg" xmlns:xlink="http://www.w3.org/1999/xlink">
	<desc>
			Created with Pixso.
	</desc>
	<defs/>
	<path id="Vector" d="M8.69165 1.58685C10.1038 1.58685 11.4844 2.00562 12.6587 2.79022C13.8328 3.57483 14.748 4.69006 15.2886 5.99481C15.8289 7.29956 15.9705 8.73529 15.6948 10.1204C15.4194 11.5055 14.7393 12.7778 13.7407 13.7764C12.7419 14.775 11.4697 15.4551 10.0847 15.7307C8.69946 16.0062 7.26367 15.8647 5.95898 15.3243C4.6543 14.7839 3.53906 13.8687 2.75439 12.6944C1.96997 11.5201 1.55103 10.1396 1.55103 8.72736C1.55835 6.83582 2.31299 5.02386 3.65063 3.68634C4.98804 2.34882 6.80005 1.59418 8.69165 1.58685ZM8.69165 6.10352e-05C6.96704 0.00714111 5.2832 0.524963 3.85278 1.48822C2.42212 2.45148 1.30908 3.81689 0.654053 5.41223C-0.000976562 7.00751 -0.168701 8.76117 0.172119 10.4517C0.512939 12.1423 1.34692 13.694 2.56885 14.9109C3.79077 16.1279 5.3457 16.9556 7.03784 17.2894C8.72974 17.6233 10.4827 17.4484 12.0752 16.7868C13.668 16.1252 15.0288 15.0067 15.9861 13.5722C16.9436 12.1378 17.4546 10.4519 17.4546 8.72736C17.4546 7.57825 17.2275 6.44049 16.7869 5.37927C16.3459 4.31812 15.7 3.35443 14.8857 2.54358C14.0715 1.73273 13.1052 1.09058 12.0422 0.654114C10.9792 0.217651 9.84058 -0.00463867 8.69165 6.10352e-05Z" fill="#4EA8DE" fill-opacity="1.000000" fill-rule="nonzero"/>
</svg>
